<?xml version="1.0" encoding="utf-8"?>
<!-- Generator: Adobe Illustrator 27.5.0, SVG Export Plug-In . SVG Version: 6.00 Build 0)  -->
<svg version="1.1" xmlns="http://www.w3.org/2000/svg" xmlns:xlink="http://www.w3.org/1999/xlink" x="0px" y="0px"
	 viewBox="0 0 750 500" style="enable-background:new 0 0 750 500;" xml:space="preserve">
<g id="BACKGROUND">
	<rect x="-0.001" style="fill:#FFFFFF;" width="750" height="500"/>
</g>
<g id="OBJECTS">
	<g style="opacity:0.53;">
		<polyline style="fill:#DFEFED;" points="269.633,0 239.068,304.512 254.638,314.83 282.245,0 		"/>
		<polyline style="fill:#DFEFED;" points="366.343,0 389.098,330.914 404.668,341.232 378.955,0 		"/>
		<polygon style="fill:#DFEFED;" points="221.302,0 166.605,259.462 174.057,254.596 228.204,0 		"/>
		<polygon style="fill:#DFEFED;" points="159.358,0 80.733,253.053 96.488,266.384 170.542,0 		"/>
		<polygon style="fill:#DFEFED;" points="521.791,0 579.735,306.905 612.724,290.326 544.015,0 		"/>
	</g>
	<g>
		<polygon style="fill:#D4E1E7;" points="392.343,0 412.8,324.221 443.599,324.221 404.528,0 		"/>
		<polygon style="fill:#D4E1E7;" points="564.412,0 599.935,324.221 638.094,297.648 576.597,0 		"/>
		<polygon style="fill:#D4E1E7;" points="497.474,309.897 493.714,0 503.062,0 527.82,309.897 		"/>
		<polyline style="fill:#D4E1E7;" points="144.818,292.384 214.466,0 199.959,0 115.444,278.58 		"/>
		<path style="fill:#D4E1E7;" d="M65.922,160.099c0,0,107.24,40.62,136.359,64.505c29.119,23.885,80.537,73.045,80.537,73.045
			s46.114-12.651,63.689-11.452c17.576,1.199,55.698,40.328,55.698,40.328l-264.545,5.221l-105.81-75.014"/>
		<g>
			<path style="fill:#D4E1E7;" d="M175.913,176.216c0,0,7.741-8.68,15.481-1.8C185.633,184.136,175.913,176.216,175.913,176.216z"/>
			<path style="fill:#D4E1E7;" d="M118.329,168.779c0,0,7.741-8.68,15.481-1.8C128.05,176.7,118.329,168.779,118.329,168.779z"/>
			<path style="fill:#D4E1E7;" d="M129.311,149.817c0,0,11.34,1.862,8.849,12.83C126.873,162.117,129.311,149.817,129.311,149.817z"
				/>
			<path style="fill:#D4E1E7;" d="M165.447,187.036c0,0,11.34,1.862,8.849,12.83C163.009,199.337,165.447,187.036,165.447,187.036z"
				/>
			<path style="fill:#D4E1E7;" d="M134.764,183.302c0,0,11.34,1.862,8.849,12.83C132.326,195.602,134.764,183.302,134.764,183.302z"
				/>
			<path style="fill:#D4E1E7;" d="M143.095,138.363c0,0,8.425,7.816,0.29,15.583C134.269,147.27,143.095,138.363,143.095,138.363z"
				/>
			<path style="fill:#D4E1E7;" d="M138.521,167.719c0,0,8.425,7.816,0.29,15.583C129.695,176.626,138.521,167.719,138.521,167.719z"
				/>
			<path style="fill:#D4E1E7;" d="M155.243,157.564c0,0-0.774,11.465-11.93,10.03C142.767,156.308,155.243,157.564,155.243,157.564z
				"/>
			<path style="fill:#D4E1E7;" d="M181.616,185.178c0,0-9.743,6.093-15.119-3.786C175.321,174.333,181.616,185.178,181.616,185.178z
				"/>
			<path style="fill:#D4E1E7;" d="M181.886,163.018c0,0-0.774,11.465-11.93,10.03C169.41,161.761,181.886,163.018,181.886,163.018z"
				/>
			<path style="fill:#D4E1E7;" d="M132.043,175.552c0,0-0.774,11.465-11.93,10.03C119.567,174.296,132.043,175.552,132.043,175.552z
				"/>
		</g>
		<g>
			<path style="fill:#D4E1E7;" d="M612.726,207.503c0,0,0.053-11.63,10.41-11.6C625.256,207.003,612.726,207.503,612.726,207.503z"
				/>
			<path style="fill:#D4E1E7;" d="M565.328,255.8c0,0,0.053-11.63,10.41-11.6C577.857,255.299,565.328,255.8,565.328,255.8z"/>
			<path style="fill:#D4E1E7;" d="M566.328,227.427c0,0,9.731-6.113,15.127,3.755C572.646,238.259,566.328,227.427,566.328,227.427z
				"/>
			<path style="fill:#D4E1E7;" d="M619.052,236.698c0,0,9.73-6.113,15.127,3.755C625.369,247.53,619.052,236.698,619.052,236.698z"
				/>
			<path style="fill:#D4E1E7;" d="M592.586,257.215c0,0,9.731-6.113,15.127,3.755C598.904,268.047,592.586,257.215,592.586,257.215z
				"/>
			<path style="fill:#D4E1E7;" d="M575.374,214.863c0,0,11.488,0.279,10.535,11.486
				C574.657,227.381,575.374,214.863,575.374,214.863z"/>
			<path style="fill:#D4E1E7;" d="M585.084,243.05c0,0,11.488,0.279,10.535,11.486C584.367,255.568,585.084,243.05,585.084,243.05z"
				/>
			<path style="fill:#D4E1E7;" d="M597.055,223.156c0,0,7.012,9.105-2.299,15.415C586.873,230.475,597.055,223.156,597.055,223.156z
				"/>
			<path style="fill:#D4E1E7;" d="M630.296,228.9c0,0-3.267,11.017-13.837,7.173C618.398,224.941,630.296,228.9,630.296,228.9z"/>
			<path style="fill:#D4E1E7;" d="M614.468,210.814c0,0,7.012,9.105-2.299,15.415C604.287,218.133,614.468,210.814,614.468,210.814z
				"/>
			<path style="fill:#D4E1E7;" d="M581.722,250.649c0,0,7.012,9.105-2.299,15.415C571.541,257.968,581.722,250.649,581.722,250.649z
				"/>
		</g>
		<path style="fill:#D4E1E7;" d="M153.656,0h5.703c0,0,0.908,59.671,28.644,56.446c-2.247,17.918-6.117,22.447-6.117,22.447
			S152.446,63.242,153.656,0z"/>
		<path style="fill:#D4E1E7;" d="M358.366,0h-7.649c0,0-24.48,104.693,58.05,106.378c-2.28-10.11-6.561-23.524-6.561-23.524
			S346.181,95.145,358.366,0z"/>
		<path style="fill:#D4E1E7;" d="M580.735,54.307c0,0,36.371-17.306,38.056-54.307c8.425,0,10.202,0,10.202,0
			s-5.709,64.55-44.463,74.792"/>
		<path style="fill:#D4E1E7;" d="M404.24,39.446c0,0,15.668-16.082,13.731-39.446c7.048,0,15.15,0,15.15,0
			s6.293,52.972-31.514,67.318"/>
		<path style="fill:#D4E1E7;" d="M534.871,47.926c0,0,8.346,51.751,50.078,47.926c1.473,4.521,0,10.526,0,10.526
			s-39.677,11.796-55.924-50.374"/>
		<polyline style="fill:#D4E1E7;" points="598.695,123.12 612.724,106.378 617.351,107.271 601.253,139.158 		"/>
	</g>
	<g>
		<path style="fill:#86ADA2;" d="M53.672,225.519c0,0,128.734,92.338,331.626,90.393s364.701-155.814,364.701-155.814v228.189
			L30.851,375.05L53.672,225.519z"/>
		<polyline style="fill:#86ADA2;" points="146.927,256.732 126.07,277.18 133.828,280.167 152.135,259.462 		"/>
		<polyline style="fill:#86ADA2;" points="517.863,309.897 487.555,0 502.062,0 517.863,62.881 543.75,0 553.719,0 523.915,86.047 
			566.085,298.208 		"/>
		<path style="fill:#86ADA2;" d="M540.607,240.175c0,0,56.252-20.479,78.865,27.67c0,0-32.589-35.833-81.805-14.792"/>
		<polyline style="fill:#86ADA2;" points="482.485,324.221 471.289,0 459.919,0 454.784,324.221 		"/>
		<polyline style="fill:#86ADA2;" points="311.495,320.74 339.731,0 316.65,0 251.135,312.668 		"/>
		<polyline style="fill:#86ADA2;" points="322.866,90.259 367.967,31.441 371.167,31.441 359.979,49.713 376.568,41.612 
			376.568,44.698 358.05,54.728 327.573,110.281 		"/>
		<polyline style="fill:#86ADA2;" points="314.843,59.744 278.193,37.754 272.792,40.069 307.127,70.861 		"/>
		<polyline style="fill:#86ADA2;" points="464.141,37.754 432.121,0 424.019,0 464.141,64.759 		"/>
		<polyline style="fill:#86ADA2;" points="466.969,122.455 444.08,113.144 442.599,117.799 464.141,133.096 		"/>
		<polyline style="fill:#86ADA2;" points="225.579,303.357 250.187,0 232.23,0 179.183,297.489 		"/>
		<path style="fill:#86ADA2;" d="M105.946,216.897c0,0,58.968,12.426,58.614,72.312c-8.65-2.478-4.678-4.529-4.678-4.529
			s-17.529-48.016-57.844-51.821"/>
		<polyline style="fill:#86ADA2;" points="224.249,154.949 250.187,141.742 254.177,148.346 226.409,170.643 		"/>
		<g>
			<path style="fill:#86ADA2;" d="M365.274,242.942c-4.556,0.26-8.344,6.78-8.866,8.214c-0.522,1.434,0.52,2.698,0.913,3.129
				c1.186,1.304,5.412-0.005,5.412-0.005l-0.588,7.176l-5.892,4.433c0,0-17.315-1.173-23.313-1.825
				c-5.997-0.652-13.82,7.953-13.038,9.387c0.782,1.434,2.738,1.173,2.738,1.173l-1.173,11.865c0,0-8.605,5.476-8.996,7.04
				c-0.391,1.565-2.608,22.034-2.608,22.034l4.824,5.476l3.651-1.043l-3.781-7.301l2.086-13.559l12.777-8.605l-2.999,8.083
				l12.647,17.862h5.085l-3.911-5.606l-6.91-12.516l7.301-10.43l15.515,2.738l4.694,30.378h2.608l-1.434-27.38l3.259-0.782
				l-0.652,28.162h3.259l2.999-31.247l4.694-10.865c0,0,0-11.604-1.304-17.08c-1.304-5.476-3.52-16.297-3.52-16.297
				S369.837,242.682,365.274,242.942z"/>
			<path style="fill:#86ADA2;" d="M368.012,244.637c0,0,2.086-6.649,6.78-7.301c1.695,7.823-5.476,8.866-5.476,8.866"/>
			<path style="fill:#86ADA2;" d="M362.855,244.574c0,0-4.028-5.687-8.695-4.865c0.79,7.965,7.935,6.755,7.935,6.755"/>
			<g>
				<path style="fill:#86ADA2;" d="M367.839,245.746c-0.829,0-1.5-0.671-1.5-1.5v-7.692c0-0.829,0.671-1.5,1.5-1.5
					c0.829,0,1.5,0.671,1.5,1.5v7.692C369.339,245.075,368.668,245.746,367.839,245.746z"/>
				<path style="fill:#86ADA2;" d="M367.839,241.127c-0.393,0-0.786-0.154-1.08-0.459c-0.575-0.597-0.557-1.546,0.039-2.121
					l8.364-8.061l2.274-16.047c0.116-0.821,0.88-1.39,1.696-1.275c0.82,0.116,1.391,0.876,1.275,1.696l-2.419,17.069l-9.107,8.777
					C368.589,240.988,368.214,241.127,367.839,241.127z"/>
				<path style="fill:#86ADA2;" d="M377.955,222.96c-0.356,0-0.713-0.126-1-0.382l-5.424-4.854c-0.617-0.552-0.67-1.501-0.117-2.118
					c0.552-0.617,1.5-0.67,2.118-0.117l5.424,4.854c0.617,0.552,0.67,1.501,0.117,2.118
					C378.777,222.791,378.367,222.96,377.955,222.96z"/>
				<path style="fill:#86ADA2;" d="M377.254,227.907c-0.182,0-0.367-0.033-0.546-0.104l-4.723-1.848
					c-0.772-0.302-1.152-1.172-0.851-1.943c0.302-0.772,1.172-1.152,1.943-0.851l4.723,1.848c0.771,0.302,1.152,1.172,0.851,1.943
					C378.42,227.545,377.854,227.907,377.254,227.907z"/>
				<path style="fill:#86ADA2;" d="M377.176,232.732c-0.256,0-0.499-0.01-0.727-0.029c-0.826-0.069-1.439-0.793-1.37-1.619
					c0.068-0.824,0.796-1.436,1.614-1.371c0.667,0.051,6.461,0.291,7.393-6.025c0.121-0.82,0.882-1.392,1.703-1.265
					c0.82,0.121,1.386,0.883,1.265,1.703C386.042,230.992,380.515,232.732,377.176,232.732z"/>
			</g>
			<g>
				<path style="fill:#86ADA2;" d="M362.379,245.746c-0.829,0-1.5-0.671-1.5-1.5v-7.692c0-0.829,0.671-1.5,1.5-1.5
					c0.829,0,1.5,0.671,1.5,1.5v7.692C363.879,245.075,363.208,245.746,362.379,245.746z"/>
				<path style="fill:#86ADA2;" d="M362.379,241.127c-0.375,0-0.75-0.14-1.041-0.42l-9.107-8.777l-2.419-17.069
					c-0.116-0.82,0.455-1.579,1.275-1.696c0.814-0.117,1.579,0.454,1.696,1.275l2.274,16.047l8.364,8.061
					c0.596,0.575,0.614,1.524,0.039,2.121C363.165,240.974,362.772,241.127,362.379,241.127z"/>
				<path style="fill:#86ADA2;" d="M352.263,222.96c-0.412,0-0.822-0.169-1.118-0.499c-0.553-0.618-0.5-1.566,0.117-2.118
					l5.424-4.854c0.619-0.552,1.566-0.5,2.118,0.117c0.553,0.618,0.5,1.566-0.117,2.118l-5.424,4.854
					C352.976,222.833,352.619,222.96,352.263,222.96z"/>
				<path style="fill:#86ADA2;" d="M352.964,227.907c-0.6,0-1.166-0.362-1.397-0.954c-0.302-0.771,0.079-1.642,0.851-1.943
					l4.723-1.848c0.771-0.301,1.642,0.079,1.943,0.851c0.302,0.771-0.079,1.642-0.851,1.943l-4.723,1.848
					C353.331,227.874,353.146,227.907,352.964,227.907z"/>
				<path style="fill:#86ADA2;" d="M353.042,232.732c-3.338,0-8.865-1.74-9.878-8.606c-0.121-0.819,0.445-1.582,1.265-1.703
					c0.82-0.127,1.582,0.445,1.703,1.265c0.933,6.32,6.736,6.071,7.394,6.025c0.837-0.063,1.546,0.554,1.61,1.377
					c0.064,0.823-0.544,1.544-1.368,1.612C353.541,232.722,353.297,232.732,353.042,232.732z"/>
			</g>
		</g>
		<path style="fill:#86ADA2;" d="M402.206,326.524c0,0-4.941-71.718,60.604-95.661c2.363,9.311,0,5.801,0,5.801
			s-54.137,25.783-51.798,85.901"/>
		<path style="fill:#86ADA2;" d="M463.861,283.153c0,0-40.042,12.05-46.3,41.068c21.675-4.237,11.551-10.391,11.551-10.391
			s17.346-17.922,34.703-22.798"/>
		<path style="fill:#86ADA2;" d="M251.616,253.053l3.05-7.543c-1.326-2.663-2.809-5.386-4.479-8.174
			c-25.559,42.124,0.947,77.494,0.947,77.494h3.503c0,0,19.923-24.558,2.138-64.836L251.616,253.053z"/>
		<path style="fill:#86ADA2;" d="M129.089,216.461c0,1.828-1.482,3.311-3.311,3.311c-1.829,0-3.311-1.482-3.311-3.311
			c0-1.829,1.482-3.311,3.311-3.311C127.607,213.15,129.089,214.632,129.089,216.461z"/>
		<circle style="fill:#86ADA2;" cx="133.804" cy="207.697" r="4.714"/>
		<path style="fill:#86ADA2;" d="M141.252,221.762c0,2.055-1.666,3.721-3.721,3.721s-3.721-1.666-3.721-3.721
			c0-2.055,1.666-3.721,3.721-3.721S141.252,219.707,141.252,221.762z"/>
		
			<rect x="119.411" y="221.533" transform="matrix(0.2119 -0.9773 0.9773 0.2119 -118.7382 296.8301)" style="fill:#86ADA2;" width="10.511" height="1"/>
		
			<rect x="119.423" y="218.196" transform="matrix(0.3681 -0.9298 0.9298 0.3681 -121.2351 258.9995)" style="fill:#86ADA2;" width="21.027" height="1"/>
		
			<rect x="125.847" y="224.98" transform="matrix(0.8161 -0.5779 0.5779 0.8161 -105.9788 117.9075)" style="fill:#86ADA2;" width="12.867" height="1"/>
		
			<rect x="430.019" y="234.02" transform="matrix(0.7161 -0.698 0.698 0.7161 -47.6199 369.587)" style="fill:#86ADA2;" width="1" height="18.623"/>
		
			<rect x="437.556" y="218.533" transform="matrix(0.9048 -0.4257 0.4257 0.9048 -56.8981 208.5339)" style="fill:#86ADA2;" width="1" height="26.038"/>
		
			<rect x="445.148" y="229.359" transform="matrix(0.9651 -0.2619 0.2619 0.9651 -46.0777 124.9094)" style="fill:#86ADA2;" width="1" height="11.977"/>
		<path style="fill:#86ADA2;" d="M427.912,237.336c0-1.732-1.404-3.136-3.136-3.136c-1.732,0-3.136,1.404-3.136,3.136
			s1.404,3.136,3.136,3.136C426.508,240.472,427.912,239.068,427.912,237.336z"/>
		<path style="fill:#86ADA2;" d="M447.216,229.568c0-1.732-1.404-3.136-3.136-3.136c-1.732,0-3.136,1.404-3.136,3.136
			s1.404,3.136,3.136,3.136C445.812,232.705,447.216,231.301,447.216,229.568z"/>
		<path style="fill:#86ADA2;" d="M436.127,219.772c0-1.732-1.404-3.136-3.136-3.136c-1.732,0-3.136,1.404-3.136,3.136
			s1.404,3.136,3.136,3.136C434.723,222.908,436.127,221.504,436.127,219.772z"/>
		<path style="fill:#86ADA2;" d="M424.776,263.37c0,0,18.78,17.716,37.272,11.123c-1.974-2.616,0-4.826,0-4.826
			s-20.63,4.216-35.466-9.866"/>
	</g>
	<g>
		<path style="fill:#448284;" d="M535.386,341.285c0,0-1.706-25.956,26.226-26.455c-4.99-15.463,15.565-28.008,24.741-16.748
			c7.181-15.675,35.478-24.288,38.556,0.924c3.077,25.211-12.185,42.279-12.185,42.279"/>
		<path style="fill:#448284;" d="M0,267.845c0,0,427.177,157.595,749.999,11.633c0,94.348,0,220.522,0,220.522h-750L0,267.845z"/>
		<path style="fill:#6BEAE3;" d="M433.513,402.932c0,0,7.651-22.238,28.468-23.496c20.817-1.258,44.161,26.948,44.161,26.948
			S468.029,413.719,433.513,402.932z"/>
		<path style="fill:#347779;" d="M485.361,413.21c0,0-7.013-24.182,10.942-35.2C496.08,399.82,485.361,413.21,485.361,413.21z"/>
		<path style="fill:#347779;" d="M485.909,412.182c0,0,6.845-19.622,24.192-18.449C499.523,408.3,485.909,412.182,485.909,412.182z"
			/>
		<path style="fill:#347779;" d="M460.047,395.736c0,0,20.779-0.29,25.619,16.41C468.358,407.197,460.047,395.736,460.047,395.736z"
			/>
		<path style="fill:#6BEAE3;" d="M429.111,387.169c0,0-13.376,2.794-22.881,0C417.143,375.927,429.111,387.169,429.111,387.169z"/>
		<path style="fill:#6BEAE3;" d="M370.325,416.129c0,0,10.208,8.003,29.569,1.853C392.15,403.383,372.789,406.347,370.325,416.129z"
			/>
		<path style="opacity:0.2;fill:#1E3639;" d="M673.185,314.83c0,0-111.846,49.241-272.805,45.338
			c178.19,20.192,309.876-11.728,309.876-11.728"/>
		<path style="opacity:0.2;fill:#1E3639;" d="M0,355.215c0,0,351.809,156.061,668.914,78.152C628.889,473.392,636.62,500,636.62,500
			H-0.001L0,355.215z"/>
		<path style="fill:#448284;" d="M133.828,0c0,0-60.829,194.874,0,340.882C92.234,344.562,0,321.858,0,321.858V0H133.828z"/>
		<path style="fill:#448284;" d="M113.548,37.396c0,0,24.728-4.395,33.379-25.345c9.648,22.945,37.295,12.672,37.295,12.672
			s45.406,29.228,73.226-1.699c21.835,9.976,41.43-0.16,41.43-23.025c-24.583,0-173.145,0-173.145,0L113.548,37.396z"/>
		<polygon style="fill:#448284;" points="650.675,0 610.934,327.361 649.797,320.198 684.318,0 		"/>
		<path style="fill:#448284;" d="M662.198,12.051c0,0-7.582,12.349-24.104,5.582c-10.468,28.132-51.42,20.303-48.927-1.778
			C574.62,35.745,490.157,43.329,459.919,0c23.945,0,202.279,0,202.279,0V12.051z"/>
		<path style="opacity:0.2;fill:#1E3639;" d="M-0.001,500L0,394.108C0,394.108,227.064,500,457.187,500
			C197.478,500-0.001,500-0.001,500z"/>
	</g>
	<g>
		<polygon style="fill:#0A353E;" points="672.033,0 604.106,500 749.999,500 749.999,0 		"/>
		<path style="fill:#0A353E;" d="M391.339,500c-54.53,0-54.53,0-54.53,0s-35.61-119.82-237.76-108.95c-3-11.87,0-43.65,0-43.65
			s23-1.43,56.19,1.04c73.88,5.5,198.24,30.36,231.42,133.56C388.519,487.75,390.079,493.75,391.339,500z"/>
		<path style="fill:#184149;" d="M386.659,482c-65.6-103.99-231.42-133.56-231.42-133.56C229.119,353.94,353.479,378.8,386.659,482z
			"/>
		<polyline style="fill:#0A353E;" points="298.877,426.789 258.993,500 275.539,500 305.093,439.264 		"/>
		<path style="fill:#0A353E;" d="M261.088,409.803c0,0-5.685,45.105,25.395,48.516c-2.653,10.234-4.44,13.266-4.44,13.266
			s-40.103-8.339-30.908-61.782"/>
		<path style="fill:#0A353E;" d="M357.366,452.997c0,0,87.844-7.756,117.378,47.003c23.018,0,31.398,0,31.398,0
			s-54.16-91.898-160.961-61.135"/>
		<polygon style="fill:#0A353E;" points="53.672,0 133.173,500 37.431,500 0,175.51 -0.001,0 		"/>
		<polyline style="fill:#0A353E;" points="111.226,449.072 200.636,388.288 189.95,383.187 108.674,429.612 		"/>
		<path style="fill:#0A353E;" d="M47.834,146.192c0,0,0.798-0.169,2.27-0.54C67.099,141.365,173.991,110.096,181.9,0
			c-11.358,0-11.358,0-11.358,0S143.274,90.726,45.174,101.935"/>
		<polyline style="fill:#0A353E;" points="52.737,56.446 111.226,0 97.31,0 50.241,28.223 		"/>
		<path style="fill:#0A353E;" d="M672.033,95.852c0,0-67.716-3.271-70.779-95.852c11.568,0,11.568,0,11.568,0
			s8.646,64.724,71.164,63.328C746.503,61.933,672.033,95.852,672.033,95.852z"/>
		<polygon style="fill:#184149;" points="78.718,157.523 133.173,500 105.946,500 		"/>
		<polygon style="fill:#184149;" points="656.571,113.809 604.106,500 672.033,500 697.245,175.51 677.052,233.889 659.847,206.133 
					"/>
		<polygon style="fill:#0A353E;" points="658.46,236.664 672.033,250 652.364,383.187 		"/>
		<polygon style="fill:#0F242A;" points="-0.001,0 13.069,0 45.174,452.997 32.661,458.645 0,175.51 		"/>
		<polygon style="fill:#0F242A;" points="749.999,73.096 749.999,500 726.961,500 		"/>
		<g>
			<path style="fill:#0A353E;" d="M579.539,489.609c-0.391-0.078-39.288-8.465-54.524-62.288l1.925-0.545
				c7.783,27.494,21.775,42.578,32.142,50.391c11.233,8.464,20.756,10.463,20.851,10.481L579.539,489.609z"/>
			<path style="fill:#0A353E;" d="M585.838,482.853c-0.473-0.284-11.706-7.143-21.996-22.149
				c-9.483-13.83-19.81-37.445-15.151-71.404l1.981,0.272c-4.566,33.278,5.509,56.393,14.765,69.923
				c10.042,14.679,21.319,21.578,21.432,21.646L585.838,482.853z"/>
			<path style="fill:#0A353E;" d="M603.109,446.06c-0.022-0.292-2.397-29.482-19.869-49.798l1.517-1.305
				c17.91,20.825,20.325,50.655,20.347,50.954L603.109,446.06z"/>
		</g>
		<circle style="fill:#184149;" cx="583.998" cy="395.61" r="7.322"/>
		<circle style="fill:#184149;" cx="549.682" cy="389.435" r="9.074"/>
		<path style="fill:#184149;" d="M532.229,427.049c0-3.452-2.799-6.251-6.251-6.251c-3.452,0-6.251,2.799-6.251,6.251
			c0,3.453,2.799,6.251,6.251,6.251C529.43,433.301,532.229,430.502,532.229,427.049z"/>
		<path style="fill:#184149;" d="M579.735,415.683c0-2.825-2.29-5.115-5.115-5.115c-2.825,0-5.115,2.29-5.115,5.115
			c0,2.825,2.29,5.115,5.115,5.115C577.445,420.798,579.735,418.508,579.735,415.683z"/>
		<circle style="fill:#184149;" cx="533.649" cy="469.717" r="5.829"/>
		<path style="fill:#0A353E;" d="M575.321,495.068c-29.143,0-42.409-24.603-42.559-24.888l1.771-0.929
			c0.164,0.313,16.872,31.188,54.081,22.152l0.472,1.943C584.157,494.545,579.568,495.068,575.321,495.068z"/>
		<path style="fill:#0A353E;" d="M597.228,446.366c-6.475-15.789-23.082-29.776-23.249-29.916l1.282-1.535
			c0.697,0.582,17.151,14.438,23.817,30.691L597.228,446.366z"/>
		<path style="fill:#0F242A;" d="M66.914,274.193c0.828-2.425-18.369-129.57-18.369-129.57l16.346-2.267L66.914,274.193z"/>
		<g>
			<g>
				<path style="fill:#184149;" d="M184.487,370.549c49.726,7.635,62.551-38.701,59.655-49.457
					c-2.896-10.757-19.623,9.253-19.623,9.253s-0.235-25.802-10.574-28.389c-8.742-2.187-19.047,13.903-19.047,13.903
					s-4.861-15.107-15.687-15.107c-9.617,0-15.797,23.65-15.797,23.65s-5.324-22.445-14.426-20.272
					C143.515,305.437,128.497,361.952,184.487,370.549z"/>
				<path style="fill:#6BEAE3;" d="M216.357,336.315c-0.884,6.845-11.98,11.054-24.784,9.401
					c-12.804-1.654-22.467-8.544-21.583-15.389c0.884-6.845,11.98-11.054,24.784-9.401
					C207.578,322.58,217.241,329.47,216.357,336.315z"/>
				<path style="fill:#184149;" d="M166.605,342.803c0,0,5.525-16.211,13.771-15.413c8.246,0.798,10.906,17.291,10.906,17.291
					s5.574-14.764,13.161-14.431c7.587,0.333,11.744,16.858,11.744,16.858l-24.108,11.14"/>
			</g>
			<g>
				<path style="fill:#184149;" d="M259.906,392.847c27.068,13.248,42.678-10.954,42.943-17.622
					c0.266-6.668-12.873,1.785-12.873,1.785s4.474-14.795-0.975-18.121c-4.608-2.812-13.374,4.547-13.374,4.547
					s-0.081-9.506-6.271-11.44c-5.499-1.718-13.257,10.701-13.257,10.701s0.965-13.785-4.627-14.168
					C248.11,348.299,229.428,377.93,259.906,392.847z"/>
				<path style="fill:#6BEAE3;" d="M284.243,378.966c-1.728,3.756-8.825,4.181-15.85,0.948c-7.025-3.233-11.32-8.898-9.591-12.654
					s8.825-4.181,15.85-0.948C281.677,369.544,285.972,375.21,284.243,378.966z"/>
				<path style="fill:#184149;" d="M254.638,373.788c0,0,6.055-8.282,10.627-6.353c4.572,1.929,3.147,11.835,3.147,11.835
					s5.824-7.446,10.103-5.901c4.279,1.546,3.704,11.737,3.704,11.737l-15.774,2.063"/>
			</g>
			<path style="fill:#184149;" d="M159.882,354.517c0,0-19.889-2.801-21.01,14.007C155.4,368.524,159.882,354.517,159.882,354.517z"
				/>
			<path style="fill:#184149;" d="M165.055,352.839c0,0-19.794,9.798-10.382,25.752C176.1,369.925,165.055,352.839,165.055,352.839z
				"/>
			<circle style="fill:#FFFFFF;" cx="167.901" cy="297.766" r="2.987"/>
			<path style="fill:#FFFFFF;" d="M194.698,294.779c0,1.824-1.479,3.303-3.304,3.303c-1.824,0-3.303-1.479-3.303-3.303
				s1.479-3.304,3.303-3.304C193.219,291.475,194.698,292.954,194.698,294.779z"/>
			<path style="fill:#FFFFFF;" d="M209.091,296.892c0,1.167-0.946,2.114-2.114,2.114s-2.114-0.946-2.114-2.114
				c0-1.167,0.946-2.114,2.114-2.114S209.091,295.725,209.091,296.892z"/>
			<path style="fill:#FFFFFF;" d="M206.609,280.167c0,1.65-1.337,2.987-2.987,2.987c-1.649,0-2.987-1.337-2.987-2.987
				c0-1.65,1.337-2.987,2.987-2.987C205.272,277.18,206.609,278.517,206.609,280.167z"/>
			<path style="fill:#FFFFFF;" d="M285.136,340.463c0,0.854-0.692,1.546-1.546,1.546s-1.546-0.692-1.546-1.546
				c0-0.854,0.692-1.546,1.546-1.546S285.136,339.609,285.136,340.463z"/>
			<circle style="fill:#FFFFFF;" cx="270.949" cy="342.009" r="3.135"/>
			<circle style="fill:#FFFFFF;" cx="288.879" cy="350.639" r="2.199"/>
		</g>
	</g>
	<g>
		<path style="fill:#0F242A;" d="M714.959,386.479l-12.618,47.47l-3.015-46.588c-9.565,0.861-19.877,2.4-30.374,4.971l3.081,31.162
			l-16.271-27.381c-25.089,8.308-49.885,23.297-66.817,49.739l21.989,22.669l-30.403-7.071c-5.01,11.156-8.809,23.927-11.027,38.552
			h180.494V388.288C749.999,388.288,735.632,385.992,714.959,386.479z"/>
		<path style="fill:#0F242A;" d="M165.225,485.074l13.166-12.859c-7.569-3.778-15.314-7.185-23.138-10.259l-14.782,20.04
			l5.582-23.493C74.51,432.878-0.001,433.682-0.001,433.682V500c0,0,121.327,0,221.303,0c-9.528-8.051-19.917-15.114-30.817-21.33
			L165.225,485.074z"/>
		<path style="fill:#0F242A;" d="M96.369,416.129l18.749-5.933c3.352-11.994,2.806-27.336-4.891-46.884
			c-8.885,1.714-16.331,4.126-22.559,7.055v22.809l-7.429-18.715c-8.237,5.299-13.632,11.709-17.014,18.539l3.362,12.134
			l-7.019-1.747c-5.244,23.372,7.019,47.561,7.019,47.561s31.953-6.126,45.016-31.75L96.369,416.129z"/>
		<path style="fill:#0F242A;" d="M78.718,453.96c0,0-21.696-60.94-71.521-53.13C34.221,444.953,78.718,453.96,78.718,453.96z"/>
	</g>
</g>
</svg>
